<?xml version="1.0" encoding="UTF-8"?><svg xmlns="http://www.w3.org/2000/svg" xmlns:xlink="http://www.w3.org/1999/xlink" version="1.1" id="Layer_1" x="0px" y="0px" viewBox="0 0 24 24" xml:space="preserve"><path id="base_color_11_" fill="#F47920" d="M21.39 4h-2.602c-.654-2.307-2.771-4-5.288-4S8.866 1.693 8.212 4H4.85l-.393-1.291A1 1 0 0 0 3.5 2h-2a.5.5 0 0 0-.5.5v1a.5.5 0 0 0 .5.5h1.26l3.123 10.266-1.166 1.361c-.462.538-.67 1.28-.457 1.956A1.987 1.987 0 0 0 6.174 19H20.5a.5.5 0 0 0 .5-.5v-1a.5.5 0 0 0-.5-.5H6.447l1.742-2h9.359c.77 0 1.481-.45 1.81-1.148l3.49-7.415c.1-.213.152-.45.152-.685V5.61C23 4.722 22.278 4 21.39 4zM7 20c-1.103 0-2 .897-2 2s.897 2 2 2 2-.897 2-2-.897-2-2-2zm12 0c-1.103 0-2 .897-2 2s.897 2 2 2 2-.897 2-2-.897-2-2-2z"/><g id="light_foil_10_" fill="#FFF"><path opacity="0.2" d="M13.5 0a5.5 5.5 0 1 0 0 11 5.5 5.5 0 0 0 0-11zm1 5v4h-2V5h-2l3-3 3 3h-2z"/><path opacity="0.8" d="M16.5 5l-3-3-3 3h2v4h2V5z"/></g><metadata><rdf:RDF xmlns:rdf="http://www.w3.org/1999/02/22-rdf-syntax-ns#" xmlns:rdfs="http://www.w3.org/2000/01/rdf-schema#" xmlns:dc="http://purl.org/dc/elements/1.1/"><rdf:Description about="https://iconscout.com/legal#licenses" dc:title="cart,action,shop,store,buy,output" dc:description="cart,action,shop,store,buy,output" dc:publisher="Iconscout" dc:date="2017-10-13" dc:format="image/svg+xml" dc:language="en"><dc:creator><rdf:Bag><rdf:li>Those Icons</rdf:li></rdf:Bag></dc:creator></rdf:Description></rdf:RDF></metadata></svg>