<svg xmlns="http://www.w3.org/2000/svg" width="32" height="32" viewBox="0 0 32 32"><g transform="translate(0 -1020.362)"><circle cx="16" cy="1036.362" r="16" fill="#3a6c87"/><path fill="#2f536e" fill-rule="evenodd" d="M 18.451172 31.800781 A 16 16 0 0 0 18.71875 31.767578 A 16 16 0 0 0 20.279297 31.416016 A 16 16 0 0 0 21.796875 30.912109 A 16 16 0 0 0 23.257812 30.259766 A 16 16 0 0 0 24.644531 29.462891 A 16 16 0 0 0 25.945312 28.533203 A 16 16 0 0 0 27.146484 27.478516 A 16 16 0 0 0 28.238281 26.306641 A 16 16 0 0 0 29.205078 25.035156 A 16 16 0 0 0 30.041016 23.669922 A 16 16 0 0 0 30.736328 22.230469 A 16 16 0 0 0 31.285156 20.728516 A 16 16 0 0 0 31.298828 20.677734 L 16.068359 5.4472656 C 16.065059 5.4472656 16.063547 5.4570312 16.060547 5.4570312 L 16.050781 5.4472656 C 14.961933 6.5361656 14.205672 7.790575 13.703125 9.046875 L 14.105469 9.4492188 L 13.722656 9.4492188 C 13.671596 9.4492188 13.620032 9.4722186 13.574219 9.4492188 C 12.871217 11.385719 12.698837 13.454297 12.869141 15.451172 C 12.909415 15.923408 12.972531 16.389976 13.048828 16.851562 L 12.445312 16.248047 C 10.267608 17.001847 9.5975998 20.601994 11.021484 24.371094 L 18.451172 31.800781 z " transform="translate(0 1020.362)"/><path fill="#fff" fill-rule="evenodd" d="m 16.049891,1025.8087 c -1.088848,1.0889 -1.843327,2.3443 -2.345874,3.6006 l 4.691748,0 c -0.03344,-0.084 -0.07716,-0.1667 -0.112873,-0.2503 l 0.0099,0 c -0.05962,-0.1398 -0.13258,-0.2758 -0.197943,-0.4139 -0.05521,-0.1162 -0.105361,-0.2328 -0.165229,-0.3484 -0.124778,-0.2419 -0.26451,-0.4782 -0.408975,-0.7133 -0.03284,-0.053 -0.06095,-0.1074 -0.09488,-0.1603 -0.382895,-0.5992 -0.828278,-1.1747 -1.357795,-1.7144 -0.0033,0 -0.0052,0.01 -0.0082,0.01 l -0.0097,-0.01 z m -2.475111,4.003 c -1.406004,3.873 -0.694668,8.2724 0.65109,11.5756 l 3.684035,0 c 1.285136,-3.2434 2.023502,-7.6817 0.634725,-11.5756 -0.04142,0.017 -0.08593,2e-4 -0.130865,0 l -4.691748,0 c -0.05106,0 -0.101424,0.023 -0.147237,0 z m 2.835013,1.1468 c 0.188776,0.05 0.370785,0.1201 0.536568,0.2241 0.125669,0.039 0.09492,0.1074 0.01801,0.1734 -0.04881,0.045 -0.08214,0.1217 -0.143959,0.144 -0.152669,-0.108 -0.330135,-0.1739 -0.510396,-0.2241 l 0.09978,-0.3174 z m -0.737791,0 0.09652,0.3207 c -0.187061,0.05 -0.370257,0.1171 -0.530025,0.229 l -0.189766,-0.2389 c 0.01854,-0.1095 0.247505,-0.1552 0.351718,-0.229 l 0.271558,-0.082 z m -1.118951,0.8016 0.291188,0.1636 c -0.0989,0.1551 -0.16583,0.3302 -0.194673,0.512 -0.06457,0.032 -0.244035,0.014 -0.330452,-0.028 0.006,-0.1549 0.07919,-0.3043 0.124329,-0.4531 l 0.109608,-0.1947 z m 2.939701,0.047 c 0.03119,0 0.05494,0.031 0.06707,0.095 0.07502,0.1762 0.134784,0.3668 0.145595,0.5595 l -0.332083,0.03 c -0.01583,-0.1911 -0.07384,-0.381 -0.168501,-0.5481 l 0.176681,-0.09 c 0.04202,-0.03 0.08004,-0.05 0.111237,-0.046 z m -1.442861,0.53 c 0.197198,0 0.335359,0.1391 0.335359,0.3354 0,0.2407 -0.167274,0.337 -0.335359,0.337 -0.240704,0 -0.33536,-0.1689 -0.33536,-0.337 0,-0.2267 0.191059,-0.3354 0.33536,-0.3354 z m 1.341438,0.319 0.332081,0.033 c -0.01589,0.1841 -0.02836,0.3689 -0.09652,0.5431 -0.01006,0.17 -0.107687,0.1351 -0.215936,0.059 -0.201289,-0.033 -0.07963,-0.2041 -0.04908,-0.3386 l 0.02942,-0.2961 z m -2.715591,0.373 c 0.04558,0.1711 0.117411,0.3343 0.222487,0.4777 0.06856,0.054 -0.06239,0.091 -0.09162,0.1374 -0.05244,0.025 -0.108315,0.1411 -0.157045,0.088 -0.134269,-0.1799 -0.237084,-0.3838 -0.292823,-0.602 l 0.318995,-0.1014 z m 2.280438,0.674 0.222487,0.2486 c -0.169886,0.1632 -0.369222,0.3046 -0.595468,0.3763 l -0.09815,-0.2879 c 0.04155,-0.074 0.224116,-0.1181 0.312452,-0.1947 l 0.15868,-0.1423 z m -1.57209,0.2225 c 0.01518,-0 0.03259,0 0.05395,0.026 0.14634,0.072 0.311819,0.1214 0.476046,0.1308 l -0.03271,0.3321 c -0.234881,-0.015 -0.466773,-0.089 -0.670719,-0.2061 l 0.07851,-0.1489 c 0.02737,-0.041 0.04927,-0.1283 0.09489,-0.1341 z m -2.938071,2.6845 c -2.177704,0.7538 -2.848746,4.3547 -1.424861,8.1238 0.418788,-3.0152 1.257673,-4.1044 2.597797,-3.6856 -0.586307,-1.5077 -0.921659,-3.0143 -1.172936,-4.4382 z m 7.107965,0 c -0.167517,1.4239 -0.501565,2.9305 -1.087872,4.4382 1.340126,-0.4188 2.177704,0.6704 2.51274,3.6856 1.423883,-3.7691 0.752836,-7.37 -1.424868,-8.1238 z m -5.095815,5.7796 0,0.6674 3.183451,0 0,-0.6674 -3.183451,0 z m 0.50386,1.3398 0,1.842 0.667441,0 0,-1.842 -0.667441,0 z m 1.508291,0 0,2.2608 0.667447,0 0,-2.2608 -0.667447,0 z m -1.508291,2.4277 0,0.3353 0.667441,0 0,-0.3353 -0.667441,0 z m 1.508291,0.3353 0,0.4188 0.667447,0 0,-0.4188 -0.667447,0 z"/></g></svg>