<?xml version="1.0" encoding="UTF-8"?>
<svg xmlns="http://www.w3.org/2000/svg" xmlns:xlink="http://www.w3.org/1999/xlink" version="1.1" id="Layer_1" x="0px" y="0px" viewBox="0 0 24 24" style="enable-background:new 0 0 24 24;" xml:space="preserve">
<g>
	<path style="fill:#303C42;" d="M22.75,6h-4.5V3.5c0-0.133-0.053-0.26-0.146-0.354l-2-2C16.01,1.053,15.883,1,15.75,1h-7   C8.617,1,8.49,1.053,8.396,1.146l-2,2C6.303,3.24,6.25,3.367,6.25,3.5V6h-4.5c-0.276,0-0.5,0.224-0.5,0.5V21c0,1.103,0.897,2,2,2   h18c1.103,0,2-0.897,2-2V6.5C23.25,6.224,23.026,6,22.75,6z M15.25,6h-6V4h6V6z"/>
	<polygon style="fill:#FAFAFA;" points="17.25,6 16.25,6 16.25,2.707 17.25,3.707  "/>
	<rect x="9.25" y="2" style="fill:#E6E6E6;" width="6" height="1"/>
	<polygon style="fill:#FAFAFA;" points="7.25,3.707 8.25,2.707 8.25,6 7.25,6  "/>
	<path style="fill:#FAFAFA;" d="M22.25,21c0,0.551-0.449,1-1,1h-18c-0.551,0-1-0.449-1-1V7h20V21z"/>
	<path style="opacity:0.1;" d="M21.25,21h-18c-0.551,0-1-0.449-1-1v1c0,0.551,0.449,1,1,1h18c0.551,0,1-0.449,1-1v-1   C22.25,20.551,21.801,21,21.25,21z"/>
	<linearGradient id="SVGID_1_" gradientUnits="userSpaceOnUse" x1="9.125" y1="2.125" x2="10.375" y2="3.375">
		<stop offset="0" style="stop-color:#000000;stop-opacity:0.18"/>
		<stop offset="1" style="stop-color:#000000;stop-opacity:0"/>
	</linearGradient>
	<polygon style="fill:url(#SVGID_1_);" points="9.75,2 9.25,2 9.25,3 10.75,3  "/>
	<path style="fill:none;stroke:#303C42;stroke-linecap:round;stroke-linejoin:round;stroke-miterlimit:10;" d="M0.75,15.5"/>
	<path style="fill:#303C42;" d="M14.25,10c-0.75,0-1.454,0.276-2,0.772C11.704,10.276,11,10,10.25,10c-1.654,0-3,1.346-3,3   c0,0.802,0.312,1.555,0.88,2.123l3.768,3.732C11.996,18.952,12.123,19,12.25,19s0.254-0.048,0.352-0.145l3.769-3.734   c0.567-0.566,0.879-1.319,0.879-2.121C17.25,11.346,15.904,10,14.25,10z"/>
	<path style="fill:#D32F2F;" d="M15.666,14.413l-3.416,3.384l-3.414-3.382C8.458,14.037,8.25,13.534,8.25,13c0-1.103,0.897-2,2-2   c0.632,0,1.214,0.296,1.599,0.813c0.188,0.253,0.613,0.253,0.802,0C13.036,11.296,13.618,11,14.25,11c1.103,0,2,0.897,2,2   C16.25,13.534,16.042,14.037,15.666,14.413z"/>
	<path style="opacity:0.2;fill:#FFFFFF;" d="M10.25,11.5c0.632,0,1.214,0.296,1.599,0.813c0.188,0.253,0.613,0.253,0.802,0   c0.385-0.517,0.967-0.813,1.599-0.813c1.019,0,1.852,0.768,1.975,1.754C16.236,13.17,16.25,13.086,16.25,13c0-1.103-0.897-2-2-2   c-0.632,0-1.214,0.296-1.599,0.813c-0.188,0.253-0.613,0.253-0.802,0C11.464,11.296,10.882,11,10.25,11c-1.103,0-2,0.897-2,2   c0,0.086,0.014,0.17,0.025,0.254C8.398,12.268,9.231,11.5,10.25,11.5z"/>
	<linearGradient id="SVGID_2_" gradientUnits="userSpaceOnUse" x1="0.5446" y1="7.9015" x2="24.3815" y2="19.0169">
		<stop offset="0" style="stop-color:#FFFFFF;stop-opacity:0.2"/>
		<stop offset="1" style="stop-color:#FFFFFF;stop-opacity:0"/>
	</linearGradient>
	<path style="fill:url(#SVGID_2_);" d="M22.75,6h-4.5V3.5c0-0.133-0.053-0.26-0.146-0.354l-2-2C16.01,1.053,15.883,1,15.75,1h-7   C8.617,1,8.49,1.053,8.396,1.146l-2,2C6.303,3.24,6.25,3.367,6.25,3.5V6h-4.5c-0.276,0-0.5,0.224-0.5,0.5V21c0,1.103,0.897,2,2,2   h18c1.103,0,2-0.897,2-2V6.5C23.25,6.224,23.026,6,22.75,6z M15.25,6h-6V4h6V6z"/>
</g>
<g>
</g>
<g>
</g>
<g>
</g>
<g>
</g>
<g>
</g>
<g>
</g>
<g>
</g>
<g>
</g>
<g>
</g>
<g>
</g>
<g>
</g>
<g>
</g>
<g>
</g>
<g>
</g>
<g>
</g>

	<metadata>
		<rdf:RDF xmlns:rdf="http://www.w3.org/1999/02/22-rdf-syntax-ns#" xmlns:rdfs="http://www.w3.org/2000/01/rdf-schema#" xmlns:dc="http://purl.org/dc/elements/1.1/">
			<rdf:Description about="https://iconscout.com/legal#licenses" dc:title="shopping; action; paper; buy; bag; love; favorite" dc:description="shopping; action; paper; buy; bag; love; favorite" dc:publisher="Iconscout" dc:date="2017-03-22" dc:format="image/svg+xml" dc:language="en">
				<dc:creator>
					<rdf:Bag>
						<rdf:li>Alpár - Etele Méder</rdf:li>
					</rdf:Bag>
				</dc:creator>
			</rdf:Description>
		</rdf:RDF>
    </metadata></svg>
